<?xml version="1.0" encoding="iso-8859-1"?>
<!-- Generator: Adobe Illustrator 19.0.0, SVG Export Plug-In . SVG Version: 6.00 Build 0)  -->
<svg version="1.1" id="Capa_1" xmlns="http://www.w3.org/2000/svg" xmlns:xlink="http://www.w3.org/1999/xlink" x="0px" y="0px"
	 viewBox="0 0 512 512" style="enable-background:new 0 0 512 512;" xml:space="preserve">
<path style="fill:#00459F;" d="M427.47,458.44l26.98,13.43l-0.18,0.09l-26.8,13.34c-35.6,17.72-73.93,26.7-113.92,26.7
	c-68.38,0-132.67-26.63-181.02-74.98S57.55,324.38,57.55,256s26.63-132.67,74.98-181.02S245.17,0,313.55,0
	c39.99,0,78.32,8.98,113.92,26.7l26.61,13.24l0.37,0.19l-26.98,13.43C350.09,92.08,302.02,169.65,302.02,256
	S350.09,419.92,427.47,458.44z"/>
<path style="fill:#002D6B;" d="M427.47,458.44l26.98,13.43l-0.18,0.09c-17.42,4.35-35.37,6.54-53.73,6.54
	c-59.27,0-115-23.15-156.91-65.18c-41.91-42.02-64.99-97.91-64.99-157.34c0-59.44,23.08-115.32,64.99-157.35
	s97.64-65.18,156.91-65.18c18.29,0,36.18,2.17,53.54,6.49l0.37,0.19l-26.98,13.43C350.09,92.08,302.02,169.65,302.02,256
	S350.09,419.92,427.47,458.44z"/>
<g>
</g>
<g>
</g>
<g>
</g>
<g>
</g>
<g>
</g>
<g>
</g>
<g>
</g>
<g>
</g>
<g>
</g>
<g>
</g>
<g>
</g>
<g>
</g>
<g>
</g>
<g>
</g>
<g>
</g>
</svg>
