<?xml version="1.0" encoding="iso-8859-1"?>
<!-- Generator: Adobe Illustrator 19.0.0, SVG Export Plug-In . SVG Version: 6.00 Build 0)  -->
<svg version="1.1" id="Capa_1" xmlns="http://www.w3.org/2000/svg" xmlns:xlink="http://www.w3.org/1999/xlink" x="0px" y="0px"
	 viewBox="0 0 511.999 511.999" style="enable-background:new 0 0 511.999 511.999;" xml:space="preserve">
<path style="fill:#8ADBA1;" d="M97.34,347.715c19.213,6.311,34.17,21.267,40.481,40.481c9.436,28.728,33.855,62.631,85.61,63.35
	c151.925,2.11,270.546-254.61,252.831-388.652c-3.694-27.948-25.672-49.926-53.62-53.62C288.6-8.442,31.88,110.18,33.99,262.104
	C34.709,313.861,68.612,338.28,97.34,347.715z"/>
<path style="fill:#7ACF90;" d="M200.722,251.069c-48.016-16.114-24.342-143.608,36.339-208.347
	C130.524,86.809,32.684,168.077,33.99,262.104c0.719,51.756,34.622,76.175,63.35,85.611c19.213,6.311,34.17,21.267,40.481,40.481
	c9.436,28.728,33.855,62.631,85.61,63.35c63.019,0.875,120.306-42.784,164.51-103.749
	C258.196,396.265,194.693,285.93,200.722,251.069z"/>
<path style="fill:#67C787;" d="M100.878,504.5c-8.495,0-16.271-5.665-18.582-14.259c-24.396-90.747,43.194-188.236,104.191-254.039
	c69.006-74.441,151.072-132.634,187.306-150.18c9.566-4.636,21.085-0.634,25.719,8.938c4.636,9.571,0.633,21.085-8.938,25.72
	c-32.56,15.765-110.963,71.704-175.848,141.7c-36.061,38.901-62.775,76.427-79.4,111.536
	c-18.805,39.716-24.137,75.489-15.846,106.327c2.762,10.27-3.326,20.831-13.595,23.592C104.214,504.285,102.533,504.5,100.878,504.5
	z"/>
<path style="fill:#5FB87D;" d="M184.458,238.404C124.003,304.168,58.17,400.499,82.297,490.24
	c2.31,8.595,10.087,14.259,18.582,14.259c1.655,0,3.336-0.215,5.01-0.665c10.269-2.761,16.355-13.324,13.595-23.592
	c-8.291-30.839-2.958-66.612,15.846-106.327c14.837-31.333,37.718-64.593,68.098-99.036
	C191.441,273.913,180.561,254.21,184.458,238.404z"/>
<path d="M483.697,61.911c-4.129-31.241-28.831-55.944-60.073-60.073c-44.27-5.852-101.489,2.371-161.097,23.155
	c-60.76,21.184-117.143,53.225-158.762,90.221c-51.256,45.561-77.976,96.391-77.273,146.994
	c0.866,62.359,46.39,85.081,67.299,92.225c-14.229,30.132-22.225,59.049-23.808,86.267c-0.24,4.135,2.917,7.683,7.052,7.923
	c4.15,0.244,7.683-2.917,7.923-7.052c4.35-74.786,60.606-150.188,107.031-200.272c57.969-62.534,125.055-113.397,165.879-137.951
	c0.175-0.095,0.345-0.198,0.512-0.307c7.097-4.253,13.393-7.707,18.686-10.271c2.824-1.369,6.014-1.554,8.978-0.524
	c2.967,1.031,5.353,3.155,6.723,5.982c1.368,2.825,1.555,6.015,0.524,8.98c-1.031,2.966-3.155,5.353-5.981,6.721
	c-18.576,8.995-51.791,30.807-88.955,60.73c-0.314,0.218-0.613,0.457-0.89,0.719c-28.749,23.209-59.801,51.23-88.234,81.902
	c-14.709,15.868-27.89,31.525-39.499,46.903c-0.004,0.006-0.009,0.012-0.013,0.018c-17.254,22.86-31.032,45.103-41.166,66.504
	c-0.656,1.385-1.293,2.765-1.918,4.142c-0.005,0.012-0.011,0.024-0.017,0.036c-0.002,0.004-0.002,0.007-0.004,0.011
	c-18.001,39.715-22.84,75.793-14.372,107.295c0.814,3.032,0.4,6.2-1.167,8.92c-1.567,2.72-4.1,4.667-7.132,5.482
	c-1.007,0.27-2.037,0.408-3.063,0.408c-5.299,0-9.962-3.58-11.339-8.707c-1.066-3.965-1.969-8.035-2.682-12.095
	c-0.715-4.08-4.605-6.803-8.684-6.09c-4.08,0.716-6.807,4.604-6.09,8.684c0.789,4.496,1.788,9.003,2.969,13.395
	c3.135,11.666,13.755,19.813,25.824,19.813c2.341,0,4.682-0.31,6.958-0.922c6.901-1.855,12.667-6.287,16.233-12.479
	c3.568-6.192,4.511-13.403,2.655-20.303c-6.365-23.677-4.111-50.651,6.681-80.408c9.216,22.543,33.133,60.369,89.921,61.158
	c0.641,0.009,1.28,0.013,1.921,0.013c44.814,0,90.28-21.754,131.608-63.005c36.069-36.001,68.935-87.094,92.542-143.869
	c1.591-3.824-0.221-8.214-4.045-9.805c-3.825-1.589-8.216,0.221-9.805,4.046c-22.87,54.999-54.58,104.368-89.289,139.011
	c-38.455,38.382-80.258,58.622-121.018,58.622c-0.568,0-1.141-0.004-1.707-0.012c-51.987-0.722-71.553-36.769-78.59-58.193
	c-0.893-2.719-1.958-5.398-3.177-8.001c0.114-0.243,0.223-0.485,0.339-0.729c9.338-19.719,21.96-40.251,37.716-61.401
	c12.126-1.345,47.078-3.128,71.367,16.663c1.392,1.134,3.067,1.685,4.732,1.685c2.178,0,4.337-0.943,5.819-2.763
	c2.616-3.211,2.134-7.935-1.077-10.552c-19.344-15.761-45.785-21.075-68.597-20.817c8.622-10.688,18.011-21.516,28.159-32.464
	c27.416-29.575,57.218-56.587,84.869-79.046c22.061,1.113,51.498,7.418,65.118,17.484c1.341,0.991,2.903,1.469,4.452,1.469
	c2.298,0,4.566-1.053,6.037-3.042c2.462-3.331,1.758-8.027-1.573-10.489c-13.297-9.829-36.129-16.083-57.025-18.887
	c30.109-23.21,56.229-40.026,71.74-47.535c6.433-3.115,11.267-8.547,13.612-15.296c2.347-6.751,1.923-14.011-1.192-20.441
	c-3.114-6.433-8.548-11.268-15.298-13.614c-6.754-2.347-14.013-1.922-20.439,1.193c-2.428,1.176-5.063,2.536-7.878,4.062
	c-0.149-11.015-2.125-22.466-5.698-32.095c-1.44-3.884-5.759-5.865-9.64-4.423c-3.884,1.441-5.864,5.757-4.423,9.64
	c3.913,10.549,5.548,24.229,4.394,35.809c-33.737,20.721-83.077,57.42-130.878,102.986c-5.822-22.294-18.988-41.139-35.651-50.04
	c-3.652-1.951-8.198-0.572-10.149,3.081c-1.952,3.653-0.572,8.197,3.081,10.149c14.844,7.931,26.619,27.421,29.984,49.201
	c-7.665,7.616-15.25,15.445-22.681,23.462c-30.022,32.386-54.455,64.598-72.625,95.741c-2.747,4.709-5.344,9.392-7.802,14.049
	c-0.293-0.101-0.587-0.207-0.88-0.303C78.257,333.554,42.21,313.988,41.488,262c-0.446-32.158,11.725-81.782,72.241-135.576
	c40.187-35.722,94.785-66.715,153.735-87.268c56.605-19.736,112.807-27.918,154.195-22.448c24.53,3.242,43.926,22.638,47.167,47.167
	c5.294,40.054-1.825,92.307-20.044,147.135c-1.307,3.931,0.821,8.176,4.752,9.482c3.93,1.308,8.177-0.822,9.483-4.752
	C481.938,158.801,489.282,104.17,483.697,61.911z"/>
<g>
</g>
<g>
</g>
<g>
</g>
<g>
</g>
<g>
</g>
<g>
</g>
<g>
</g>
<g>
</g>
<g>
</g>
<g>
</g>
<g>
</g>
<g>
</g>
<g>
</g>
<g>
</g>
<g>
</g>
</svg>
